<svg xmlns="http://www.w3.org/2000/svg" viewBox="0 0 256 256">
  <defs>
    <linearGradient id="g" x1="0" x2="1" y1="0" y2="1">
      <stop offset="0" stop-color="#06b6d4"/>
      <stop offset="1" stop-color="#a78bfa"/>
    </linearGradient>
  </defs>
  <rect width="256" height="256" rx="56" fill="#0f172a"/>
  <g transform="translate(28 28)">
    <path d="M100 178c-2.4 0-4.7-.9-6.5-2.6l-54-49.6C22 111.5 16 98.6 16 85.1 16 60.7 35.3 41 59 41c12.6 0 24.4 5.3 33 14.7C100.6 46.3 112.4 41 125 41c23.7 0 43 19.7 43 44.1 0 13.5-6 26.4-23.5 40.7l-54 49.6c-1.8 1.7-4.1 2.6-6.5 2.6z" fill="url(#g)"/>
    <rect x="84" y="62" width="32" height="56" rx="6" fill="#fff" opacity="0.15"/>
  </g>
</svg>
